<?xml version="1.0" encoding="UTF-8" standalone="no"?>
<!-- Generator: Adobe Illustrator 17.1.0, SVG Export Plug-In . SVG Version: 6.00 Build 0)  -->

<svg
   xmlns:dc="http://purl.org/dc/elements/1.1/"
   xmlns:cc="http://creativecommons.org/ns#"
   xmlns:rdf="http://www.w3.org/1999/02/22-rdf-syntax-ns#"
   xmlns:svg="http://www.w3.org/2000/svg"
   xmlns="http://www.w3.org/2000/svg"
   xmlns:sodipodi="http://sodipodi.sourceforge.net/DTD/sodipodi-0.dtd"
   xmlns:inkscape="http://www.inkscape.org/namespaces/inkscape"
   version="1.1"
   id="Layer_1"
   x="0px"
   y="0px"
   width="225"
   height="66"
   viewBox="0 0 225 66"
   enable-background="new 0 0 132 66"
   xml:space="preserve"
   inkscape:version="0.48.4 r9939"
   sodipodi:docname="logo-github.svg"><metadata
     id="metadata11"><rdf:RDF><cc:Work
         rdf:about=""><dc:format>image/svg+xml</dc:format><dc:type
           rdf:resource="http://purl.org/dc/dcmitype/StillImage" /></cc:Work></rdf:RDF></metadata><defs
     id="defs9" /><sodipodi:namedview
     pagecolor="#ffffff"
     bordercolor="#666666"
     borderopacity="1"
     objecttolerance="10"
     gridtolerance="10"
     guidetolerance="10"
     inkscape:pageopacity="0"
     inkscape:pageshadow="2"
     inkscape:window-width="1680"
     inkscape:window-height="995"
     id="namedview7"
     showgrid="false"
     inkscape:zoom="14.30303"
     inkscape:cx="222.79987"
     inkscape:cy="51.095891"
     inkscape:window-x="-2"
     inkscape:window-y="-3"
     inkscape:window-maximized="1"
     inkscape:current-layer="Layer_1" /><rect
     style="color:#000000;fill:#e3dbdb;fill-opacity:1;fill-rule:evenodd;stroke:none;stroke-width:1;marker:none;visibility:visible;display:inline;overflow:visible;enable-background:accumulate"
     id="rect2985"
     width="225.12711"
     height="66.069908"
     x="0.069915242"
     y="0.069915757"
     rx="5.7026834"
     ry="4.8640733" /><path
     clip-rule="evenodd"
     d="m 33,1.8 c -17.7,0 -32,14.3 -32,32 0,14.1 9.2,26.1 21.9,30.4 1.6,0.3 2.2,-0.7 2.2,-1.5 0,-0.8 0,-2.8 0,-5.4 C 16.2,59.2 14.3,53 14.3,53 c -1.5,-3.7 -3.6,-4.7 -3.6,-4.7 -2.9,-2 0.2,-1.9 0.2,-1.9 3.2,0.2 4.9,3.3 4.9,3.3 2.9,4.9 7.5,3.5 9.3,2.7 0.3,-2.1 1.1,-3.5 2,-4.3 C 20,47.3 12.5,44.5 12.5,32.3 c 0,-3.5 1.2,-6.3 3.3,-8.6 -0.3,-0.8 -1.4,-4.1 0.3,-8.5 0,0 2.7,-0.9 8.8,3.3 2.6,-0.7 5.3,-1.1 8,-1.1 2.7,0 5.5,0.4 8,1.1 6.1,-4.1 8.8,-3.3 8.8,-3.3 1.7,4.4 0.6,7.7 0.3,8.5 2.1,2.2 3.3,5.1 3.3,8.6 0,12.3 -7.5,15 -14.6,15.8 1.1,1 2.2,2.9 2.2,5.9 0,4.3 0,7.7 0,8.8 0,0.9 0.6,1.9 2.2,1.5 C 55.8,59.9 65,47.9 65,33.8 65,16.1 50.7,1.8 33,1.8 z"
     id="path3"
     inkscape:connector-curvature="0"
     style="fill:#333333;fill-rule:evenodd" /><text
     xml:space="preserve"
     style="font-size:46.0497818px;font-style:normal;font-variant:normal;font-weight:600;font-stretch:normal;text-align:center;line-height:125%;letter-spacing:0px;word-spacing:0px;text-anchor:middle;color:#000000;fill:#333333;fill-opacity:1;fill-rule:evenodd;stroke:none;stroke-width:1;marker:none;visibility:visible;display:inline;overflow:visible;enable-background:accumulate;font-family:FreeSans;-inkscape-font-specification:FreeSans Semi-Bold"
     x="145.84369"
     y="50.880634"
     id="text2988"
     sodipodi:linespacing="125%"><tspan
       sodipodi:role="line"
       id="tspan2990"
       x="145.84369"
       y="50.880634">Github</tspan></text>
</svg>