<?xml version="1.0" encoding="UTF-8" standalone="no"?>
<!-- Created with Inkscape (http://www.inkscape.org/) -->

<svg
   xmlns:dc="http://purl.org/dc/elements/1.1/"
   xmlns:cc="http://creativecommons.org/ns#"
   xmlns:rdf="http://www.w3.org/1999/02/22-rdf-syntax-ns#"
   xmlns:svg="http://www.w3.org/2000/svg"
   xmlns="http://www.w3.org/2000/svg"
   xmlns:sodipodi="http://sodipodi.sourceforge.net/DTD/sodipodi-0.dtd"
   xmlns:inkscape="http://www.inkscape.org/namespaces/inkscape"
   width="64px"
   height="64px"
   id="svg3074"
   version="1.1"
   inkscape:version="0.48.4 r9939"
   sodipodi:docname="producte.svg"
   inkscape:export-filename="/home/vokimon/borrame/spikes/menjodelbaix/menjobe/static/menjobe/images/product.png"
   inkscape:export-xdpi="90"
   inkscape:export-ydpi="90">
  <defs
     id="defs3076" />
  <sodipodi:namedview
     id="base"
     pagecolor="#ffffff"
     bordercolor="#666666"
     borderopacity="1.0"
     inkscape:pageopacity="0.0"
     inkscape:pageshadow="2"
     inkscape:zoom="14.969429"
     inkscape:cx="30.31347"
     inkscape:cy="32.369281"
     inkscape:current-layer="layer1"
     showgrid="true"
     inkscape:document-units="px"
     inkscape:grid-bbox="true"
     inkscape:window-width="1680"
     inkscape:window-height="995"
     inkscape:window-x="-2"
     inkscape:window-y="-3"
     inkscape:window-maximized="1" />
  <metadata
     id="metadata3079">
    <rdf:RDF>
      <cc:Work
         rdf:about="">
        <dc:format>image/svg+xml</dc:format>
        <dc:type
           rdf:resource="http://purl.org/dc/dcmitype/StillImage" />
        <dc:title></dc:title>
      </cc:Work>
    </rdf:RDF>
  </metadata>
  <g
     id="layer1"
     inkscape:label="Layer 1"
     inkscape:groupmode="layer">
    <g
       transform="matrix(0.91995361,0,0,0.91995361,0.4264837,0.5319248)"
       id="g3304"
       style="color:#000000;fill:#cccccc;fill-opacity:1;fill-rule:nonzero;stroke:none;stroke-width:2.33179945;marker:none;visibility:visible;display:inline;overflow:visible;enable-background:accumulate">
      <path
         style="color:#000000;fill:#cccccc;fill-opacity:1;fill-rule:nonzero;stroke:none;stroke-width:2.33179945;marker:none;visibility:visible;display:inline;overflow:visible;enable-background:accumulate"
         d="m 38.733398,13.032485 c -2.342231,1.819699 -7.968043,9.970847 -10.932566,11.408451 -2.964524,1.437605 -7.843839,2.191841 -11.582476,4.031083 C 7.7643306,32.63102 5.4537306,41.71624 10.01474,50.385702 14.57575,59.055164 25.010058,62.506962 33.348203,58.120259 41.335322,53.918231 46.400982,46.779243 50.01974,38.231186 51.943647,33.686622 53.919539,22.545472 52.329023,17.77191 49.354081,8.8433225 43.455313,9.3639907 38.733398,13.032485 z"
         id="path3306"
         inkscape:connector-curvature="0"
         sodipodi:nodetypes="szssssss" />
      <path
         style="color:#000000;fill:#cccccc;fill-opacity:1;fill-rule:nonzero;stroke:none;stroke-width:2.33179945;marker:none;visibility:visible;display:inline;overflow:visible;enable-background:accumulate"
         d="m 49.068279,3.422495 c -0.253508,0.1663768 -0.456091,0.4360442 -0.522858,0.7577809 0.252365,2.3109911 0.317105,4.6258577 -1.419241,6.9779431 -0.133534,0.643476 0.271519,1.272025 0.914993,1.405558 0.643476,0.133534 1.272025,-0.271518 1.405558,-0.914994 1.673111,-2.8535394 1.371283,-4.8547813 1.419241,-6.9779431 0.133535,-0.6434752 -0.271518,-1.2720237 -0.914993,-1.4055575 -0.321738,-0.066767 -0.629191,-0.00916 -0.8827,0.1572126 z"
         id="path3308"
         inkscape:connector-curvature="0"
         sodipodi:nodetypes="sccsccss" />
    </g>
    <g
       transform="matrix(0.91995361,0,0,0.91995361,4.4264837,4.5319248)"
       id="g3264"
       style="color:#000000;fill:#333333;fill-opacity:1;fill-rule:nonzero;stroke:none;stroke-width:2.33179945;marker:none;visibility:visible;display:inline;overflow:visible;enable-background:accumulate">
      <path
         style="color:#000000;fill:#333333;fill-opacity:1;fill-rule:nonzero;stroke:none;stroke-width:2.33179945;marker:none;visibility:visible;display:inline;overflow:visible;enable-background:accumulate"
         d="m 38.733398,13.032485 c -2.342231,1.819699 -7.968043,9.970847 -10.932566,11.408451 -2.964524,1.437605 -7.843839,2.191841 -11.582476,4.031083 C 7.7643306,32.63102 5.4537306,41.71624 10.01474,50.385702 14.57575,59.055164 25.010058,62.506962 33.348203,58.120259 41.335322,53.918231 46.400982,46.779243 50.01974,38.231186 51.943647,33.686622 53.919539,22.545472 52.329023,17.77191 49.354081,8.8433225 43.455313,9.3639907 38.733398,13.032485 z"
         id="path3266"
         inkscape:connector-curvature="0"
         sodipodi:nodetypes="szssssss" />
      <path
         style="color:#000000;fill:#333333;fill-opacity:1;fill-rule:nonzero;stroke:none;stroke-width:2.33179945;marker:none;visibility:visible;display:inline;overflow:visible;enable-background:accumulate"
         d="m 49.068279,3.422495 c -0.253508,0.1663768 -0.456091,0.4360442 -0.522858,0.7577809 0.252365,2.3109911 0.317105,4.6258577 -1.419241,6.9779431 -0.133534,0.643476 0.271519,1.272025 0.914993,1.405558 0.643476,0.133534 1.272025,-0.271518 1.405558,-0.914994 1.673111,-2.8535394 1.371283,-4.8547813 1.419241,-6.9779431 0.133535,-0.6434752 -0.271518,-1.2720237 -0.914993,-1.4055575 -0.321738,-0.066767 -0.629191,-0.00916 -0.8827,0.1572126 z"
         id="path3268"
         inkscape:connector-curvature="0"
         sodipodi:nodetypes="sccsccss" />
    </g>
    <g
       id="g3107"
       transform="matrix(0.91995361,0,0,0.91995361,2.4264837,2.5319248)">
      <path
         sodipodi:nodetypes="szssssss"
         inkscape:connector-curvature="0"
         id="path3082"
         d="m 38.733398,13.032485 c -2.342231,1.819699 -7.968043,9.970847 -10.932566,11.408451 -2.964524,1.437605 -7.843839,2.191841 -11.582476,4.031083 C 7.7643306,32.63102 5.4537306,41.71624 10.01474,50.385702 14.57575,59.055164 25.010058,62.506962 33.348203,58.120259 41.335322,53.918231 46.400982,46.779243 50.01974,38.231186 51.943647,33.686622 53.919539,22.545472 52.329023,17.77191 49.354081,8.8433225 43.455313,9.3639907 38.733398,13.032485 z"
         style="color:#000000;fill:#999999;fill-opacity:1;fill-rule:nonzero;stroke:none;stroke-width:2.14514732;marker:none;visibility:visible;display:inline;overflow:visible;enable-background:accumulate" />
      <path
         sodipodi:nodetypes="sccsccss"
         inkscape:connector-curvature="0"
         id="rect3104"
         d="m 49.068279,3.422495 c -0.253508,0.1663768 -0.456091,0.4360442 -0.522858,0.7577809 0.252365,2.3109911 0.317105,4.6258577 -1.419241,6.9779431 -0.133534,0.643476 0.271519,1.272025 0.914993,1.405558 0.643476,0.133534 1.272025,-0.271518 1.405558,-0.914994 1.673111,-2.8535394 1.371283,-4.8547813 1.419241,-6.9779431 0.133535,-0.6434752 -0.271518,-1.2720237 -0.914993,-1.4055575 -0.321738,-0.066767 -0.629191,-0.00916 -0.8827,0.1572126 z"
         style="color:#000000;fill:#999999;fill-opacity:1;fill-rule:nonzero;stroke:none;stroke-width:2.14514732;marker:none;visibility:visible;display:inline;overflow:visible;enable-background:accumulate" />
    </g>
  </g>
</svg>
